# xmcd
#
# Track frame offsets:
#	150
#	21939
#	60918
#	87720
#	99323
#	119987
#	150005
#	165687
#	183761
#	220029
#	250226
#	270002
#	296365
#	336165
#
# Disc length: 4553 seconds
#
# Revision: 0
# Processed by: cddbd v1.5.2PL0 Copyright (c) Steve Scherf et al.
# Submitted via: EasyCDDAExtractor 10.0.2.1
#
DISCID=b411c70e
DTITLE=Guns and Roses - Intex Osaka Hall 5 Osaka 21-07-07 Master Disc 2
DYEAR=2007
DGENRE=Hard Rock
TTITLE0=Band Jam
TTITLE1=November Rain
TTITLE2=Band Jam - IRS
TTITLE3=Ron Guitar Solo
TTITLE4=Don't Cry
TTITLE5=Rocket Queen
TTITLE6=Used To Love Her
TTITLE7=My Michelle
TTITLE8=Patience
TTITLE9=Nightrain
TTITLE10=Chinese Democracy
TTITLE11=Madagascar
TTITLE12=Paradise City
TTITLE13=Axl MC
EXTD=
EXTT0=
EXTT1=
EXTT2=
EXTT3=
EXTT4=
EXTT5=
EXTT6=
EXTT7=
EXTT8=
EXTT9=
EXTT10=
EXTT11=
EXTT12=
EXTT13=
PLAYORDER=
